# xmcd
#
# Track frame offsets:
# 150
# 15590
# 37822
# 55113
# 77272
# 96564
# 125242
# 141041
# 170950
# 193056
# 227975
#
# Disc length: 3540 seconds
#
#
# Revision: 0
# Processed by: cddbd v1.5.1PL0 Copyright (c) Steve Scherf et al.
# Submitted via: FreeRIP 2.931 
#
DISCID=940dd20b
DTITLE=5 O'clock Shadow - Still In the Way
DYEAR=2004
DGENRE=Rock and Roll
TTITLE0=Sweet Young Thing
TTITLE1=Girl I Loved
TTITLE2=Still In the Way
TTITLE3=Catch Me
TTITLE4=Sweet Heat
TTITLE5=Nasty Little Girl
TTITLE6=Mexico
TTITLE7=Crazy Mary
TTITLE8=Wild At Heart
TTITLE9=Crystal Gypsy
TTITLE10=Mama
EXTD=http://www.cdbaby.com/cd/tobia2
EXTT0=
EXTT1=
EXTT2=
EXTT3=
EXTT4=
EXTT5=
EXTT6=
EXTT7=
EXTT8=
EXTT9=
EXTT10=
PLAYORDER=
